<svg xmlns="http://www.w3.org/2000/svg" version="1.1" xmlns:xlink="http://www.w3.org/1999/xlink" width="512" height="512" x="0" y="0" viewBox="0 0 64 64" style="enable-background:new 0 0 512 512" xml:space="preserve" class=""><g><path fill="#ffeaa7" d="M2 50h12v12H2z" opacity="1" data-original="#ffeaa7"></path><path fill="#e6e9ed" d="M20 14v6h-1l-3 2 3 2h1v6H2V14z" opacity="1" data-original="#e6e9ed"></path><path fill="#ffeaa7" d="M2 34h12v12H2z" opacity="1" data-original="#ffeaa7"></path><path fill="#d3a06c" d="M40 50h16v12H40z" opacity="1" data-original="#d3a06c"></path><path fill="#e6e9ed" d="M49.22 34.22 51 44l-3 3-3-3 1.78-9.78L48 33z" opacity="1" data-original="#e6e9ed"></path><path fill="#b4dd7f" d="M56 48v2h-8v-3l3-3-1.78-9.78L52 37l.85-7.68A12.076 12.076 0 0 1 62 41.05V48zM40 39l-1.33 1.77A5.574 5.574 0 0 1 34.21 43a5.59 5.59 0 0 1-5.37-4.05L26 29l6-2 2.52 10.09c1.72-3.52 4.8-6.29 8.65-7.58L44 37l2.78-2.78L45 44l3 3v3h-8z" opacity="1" data-original="#b4dd7f"></path><path fill="#a0d468" d="M52.85 29.31v.01L52 37l-2.78-2.78L48 33l3-4c.63.06 1.25.16 1.85.31zM45 29l3 4-1.22 1.22L44 37l-.83-7.49c.37-.13.75-.24 1.14-.34z" opacity="1" data-original="#a0d468"></path><path fill="#aab2bd" d="M35 20c1.1 0 2 .9 2 2 0 .55-.22 1.05-.59 1.41-.36.37-.86.59-1.41.59h-4v-4z" opacity="1" data-original="#aab2bd"></path><path fill="#ff826e" d="M20 20h11v4H19l-3-2 3-2z" opacity="1" data-original="#ff826e"></path><path fill="#656d78" d="M48 10h-8.01c-1.1 0-2.09-.45-2.82-1.17A4.025 4.025 0 0 1 36 6c0-2.21 1.79-4 4-4h7.26c3.24 0 6.18 1.32 8.3 3.44S59 10.5 59 13.74c0 4.45-2.51 8.52-6.49 10.51L51 25v-4l.21-.11C52.31 20.35 53 19.23 53 18s-.69-2.35-1.79-2.89L51 15v-2c0-1.66-1.34-3-3-3z" opacity="1" data-original="#656d78"></path><path fill="#f0d0b4" d="M62 48v2c0 2.21-1.79 4-4 4h-2v-6zM51 25v4l-3 4-3-4v-4h-.59A3.415 3.415 0 0 1 41 21.59V19l-1.41-.47a2.321 2.321 0 0 1-1.5-2.84l1.21-4.25c.15-.52.39-1.01.69-1.44H48c1.66 0 3 1.34 3 3v2l.21.11c1.1.54 1.79 1.66 1.79 2.89s-.69 2.35-1.79 2.89L51 21zM32.6 24l-.6 3-6 2-2.32-3.1c-.42-.55-.65-1.21-.68-1.9h8z" opacity="1" data-original="#f0d0b4"></path><path d="M52 28.118v-2.5l.956-.478A12.672 12.672 0 0 0 60 13.743C60 6.717 54.283 1 47.257 1H40c-2.757 0-5 2.243-5 5 0 2.231 1.479 4.103 3.501 4.745-.053.142-.119.278-.16.424l-1.213 4.244a3.322 3.322 0 0 0 2.145 4.066l.727.242v1.865c0 1.179.459 2.288 1.293 3.121A4.36 4.36 0 0 0 44 25.96v2.259a15.88 15.88 0 0 0-9.09 6.296l-1.885-7.539L33.42 25H35c1.654 0 3-1.346 3-3s-1.346-3-3-3H21v-6H1v18h20v-6h1.16c.143.539.378 1.05.718 1.504l2.211 2.948 2.793 9.774A6.608 6.608 0 0 0 34.209 44 6.619 6.619 0 0 0 39 41.927V63h18v-8h1c2.757 0 5-2.243 5-5v-8.955c0-6.51-4.668-11.915-11-12.927zm-2.078 15.545L48 45.586l-1.922-1.923 1.628-8.955.294-.294.294.294zM44.55 30.144l.049-.012 2.081 2.775-1.916 1.915-.51-4.586c.1-.028.195-.067.296-.092zm4.77 2.762 2.127-2.836c.104.014.209.026.312.043l-.523 4.708zM37 6c0-1.654 1.346-3 3-3h7.257C53.181 3 58 7.819 58 13.743c0 4.096-2.275 7.777-5.938 9.608l-.062.031v-1.784c1.243-.769 2-2.115 2-3.598s-.757-2.829-2-3.598V13c0-2.206-1.794-4-4-4h-.184c.112-.314.184-.648.184-1 0-1.654-1.346-3-3-3h-2v2h2c.551 0 1 .449 1 1s-.449 1-1 1h-5c-1.654 0-3-1.346-3-3zm5 15.586V18.28l-2.094-.698a1.323 1.323 0 0 1-.855-1.62l1.212-4.243c.072-.252.177-.489.297-.719H48c1.103 0 2 .897 2 2v2.618l.764.382c.762.381 1.236 1.147 1.236 2s-.474 1.619-1.236 2l-.764.382v8.285l-2 2.667-2-2.667V26h2v-2H44.413c-.644 0-1.25-.251-1.706-.707A2.43 2.43 0 0 1 42 21.586zM17.803 22l1.5-1H30v2H19.303zM36 22c0 .551-.449 1-1 1h-3v-2h3c.551 0 1 .449 1 1zm-17 7H3V15h16v4h-.303l-4.5 3 4.5 3H19zm5.315-4h7.065l-.247 1.235-4.766 1.589-1.889-2.52c-.07-.094-.108-.203-.163-.304zm13.56 15.168A4.605 4.605 0 0 1 34.209 42a4.598 4.598 0 0 1-4.404-3.322l-2.581-9.032 4.067-1.356 2.738 10.952 1.94-.484-.383-1.531a13.88 13.88 0 0 1 6.732-6.3l.916 8.251 1.985-1.986-1.299 7.144L48 48.414l4.078-4.077-1.299-7.144 1.985 1.986.95-8.552A11.025 11.025 0 0 1 61 41.045V47h-4V37h-2v12H41V37h-2v1.667zM49 61v-6.414l-2.293-2.293-1.414 1.414L47 55.414V61h-6V51h14v10zm9-8h-1v-4h4v1c0 1.654-1.346 3-3 3z" fill="#000000" opacity="1" data-original="#000000" class=""></path><path d="M16.293 16.293 7 25.586l-1.293-1.293-1.414 1.414L7 28.414l10.707-10.707zM1 47h14V33H1zm2-12h10v10H3zM1 63h14V49H1zm2-12h10v10H3zM17 49h16v2H17zM17 53h16v2H17zM17 57h2v2h-2zM21 57h12v2H21zM17 61h16v2H17zM17 45h8v2h-8zM17 41h8v2h-8zM17 37h8v2h-8zM17 33h8v2h-8z" fill="#000000" opacity="1" data-original="#000000" class=""></path></g></svg>