<svg xmlns="http://www.w3.org/2000/svg" version="1.1" xmlns:xlink="http://www.w3.org/1999/xlink" width="512" height="512" x="0" y="0" viewBox="0 0 50 50" style="enable-background:new 0 0 512 512" xml:space="preserve"><g><path fill="#abb734" d="M42 32.5c0 .1-6.1-1.4-6.1-1.4s0-.1.1-.1c.8-2.5 1.2-5.4 1.3-8.6.1-1.7 1.5-2 3.2-2 1.7.1 3.1.5 3 2.2-.1 3.6-.6 6.9-1.5 9.9z" opacity="1" data-original="#abb734"></path><path fill="#682f2a" d="M29.7 45.6c-.9 0-1.8-.6-1.8-1.8.1-1.6.6-7.2 1-10.6.2-1.9 1.9-3.3 3.9-3l2.8.4c.7-2.6 1.1-5.4 1.2-8.2.1-1.1.7-2.5 3.2-2.5h.5c1 .1 3.6.2 3.5 2.7-.2 4.2-.7 7.3-1.5 10-.1.2-.1.5-.1.9 0 1.8-1.6 3.2-3.5 3l-6.4-.7c-.2 1.5-.7 5.8-.9 8.2-.1 1.1-1.1 1.6-1.9 1.6zm2.6-14.4c-1.3 0-2.3.9-2.4 2.2-.4 3.6-.9 9.1-1 10.5 0 .6.4.8.8.8s.8-.2.9-.8c.3-3 1-8.6 1-8.7 0-.3.3-.5.6-.4l6.9.8h.3c1.1 0 2.1-.9 2.1-2 0-.4 0-.8.1-1.2.8-2.6 1.2-5.7 1.5-9.8.1-.9-.3-1.5-2.5-1.7h-.4c-1.9 0-2.2.8-2.2 1.5-.1 3-.5 5.9-1.3 8.7 0 .1-.1.2-.1.2l-.1.1c-.1.1-.3.2-.4.1l-3.2-.4c-.4.1-.5.1-.6.1z" opacity="1" data-original="#682f2a"></path><path fill="#c6cc4a" d="M41.7 21.9c-1 .1-1.3 1.1-.9 3.2v2.3c-.1 1.6-.3 3.2-.8 4.6-.2.6 0 1.2.6 1.4 1.7.6 2-2.1 2.3-3.2.5-2.2.7-4.4.6-6.7 0-.9-.8-1.7-1.8-1.6z" opacity="1" data-original="#c6cc4a"></path><path fill="#682f2a" d="M41.2 34c-.2 0-.4 0-.6-.1-.8-.3-1.2-1.1-.9-2 .4-1.2.7-2.5.8-4.5v-2.3c0-.3.2-.5.5-.5s.5.2.5.5v2.3c-.1 2.1-.4 3.5-.8 4.8 0 .1-.2.6.3.8.3.1.5 0 .5 0 .5-.3.8-1.5 1-2.3 0-.2.1-.4.1-.6.5-2.3.7-4.9.5-7.8 0-.3.2-.5.5-.5s.5.2.5.5c.2 3 .1 5.7-.5 8.1 0 .2-.1.4-.1.6-.2 1-.5 2.4-1.5 2.9-.3 0-.6.1-.8.1z" opacity="1" data-original="#682f2a"></path><circle cx="40.5" cy="16" r="2.6" fill="#616b77" opacity="1" data-original="#616b77"></circle><path fill="#682f2a" d="M40.5 19.1h-.3c-1.7-.2-3-1.7-2.8-3.4s1.6-3 3.4-2.8c1.7.2 3 1.7 2.8 3.4-.1 1.6-1.4 2.8-3.1 2.8zm0-5.2c-1.1 0-2 .8-2.1 1.9-.1 1.2.7 2.2 1.9 2.3s2.2-.7 2.3-1.9-.7-2.2-1.9-2.3h-.2zM40 32.6h-.1l-4.1-1c-.3-.1-.4-.3-.4-.6s.3-.4.6-.4l4.1 1c.3.1.4.3.4.6-.1.2-.3.4-.5.4z" opacity="1" data-original="#682f2a"></path><path fill="#559aff" d="M36.1 41.4c-.2 0-.4 0-.5-.1-.8-.1-1.4-.9-1.3-1.7s.9-1.4 1.7-1.3c2 .2 5.4.2 6.3-.6 1.2-.9 2.5-6.7 3.1-11.5.1-.8.9-1.4 1.7-1.3s1.5.9 1.4 1.7c-.3 2.5-1.5 11.3-4.2 13.4-2.1 1.7-6.5 1.5-8.2 1.4z" opacity="1" data-original="#559aff"></path><path fill="#682f2a" d="M38 42c-.8 0-1.5 0-2-.1-.2 0-.4 0-.7-.1-1-.2-1.7-1.2-1.6-2.2.1-1.1 1.2-1.9 2.3-1.7.7.1 1.5.1 2.3.1 2.2 0 3.3-.3 3.6-.6.9-.7 2.3-5.8 2.9-11.2.1-1.1 1.2-1.9 2.3-1.7 1.1.1 2 1.2 1.8 2.3-.4 3.4-1.7 11.6-4.4 13.7-1.2.9-3.4 1.5-6.5 1.5zm-2.1-1.1h.2c.5 0 1.2.1 1.9.1 2.8 0 4.8-.5 5.9-1.4 2.5-2 3.7-10.5 4-13.1.1-.5-.4-1.1-1-1.1-.5-.1-1.1.4-1.1.9-.4 3.6-1.7 10.6-3.3 11.8-.6.5-2 .8-4.3.8-.8 0-1.6 0-2.4-.1h-.1c-.5 0-1 .4-1 .9-.1.5.3 1.1.9 1.1.1 0 .2 0 .3.1z" opacity="1" data-original="#682f2a"></path><path fill="#ffb95c" d="M8 32.5c0 .1 6.1-1.4 6.1-1.4s0-.1-.1-.1c-.8-2.5-1.2-5.4-1.3-8.6-.1-1.7-1.5-2-3.2-2-1.7.1-3.1.5-3 2.2.1 3.6.6 6.9 1.5 9.9z" opacity="1" data-original="#ffb95c"></path><path fill="#682f2a" d="M20.3 45.6c-.8 0-1.7-.5-1.9-1.7-.2-2.5-.8-6.8-.9-8.2l-6.4.7c-.9.1-1.9-.2-2.5-.9-.6-.6-.9-1.3-.9-2.1 0-.4 0-.6-.1-.8-.8-2.7-1.3-5.8-1.5-10-.1-2.5 2.5-2.7 3.5-2.7h.5c2.6 0 3.2 1.4 3.2 2.5.1 2.8.5 5.6 1.2 8.2l2.8-.4c1.9-.2 3.6 1.1 3.9 3 .4 3.4.9 8.9 1 10.5-.1 1.3-1 1.9-1.9 1.9zm-2.4-10.9c.2 0 .5.2.5.4 0 .1.7 5.7 1 8.7.1.6.5.8.9.8s.8-.2.8-.8c-.1-1.4-.6-6.9-1-10.4-.2-1.4-1.4-2.3-2.7-2.2l-3.2.4c-.2 0-.3 0-.4-.1l-.1-.1c-.1-.1-.1-.1-.1-.2-.8-2.8-1.2-5.7-1.3-8.7 0-.7-.3-1.5-2.2-1.5h-.4c-.9.1-1.5.2-2 .4-.6.2-.7.6-.7 1.2.2 4.1.7 7.1 1.5 9.8.1.4.1.7.1 1.1 0 .5.2 1 .6 1.4.5.4 1.1.7 1.7.6z" opacity="1" data-original="#682f2a"></path><path fill="#ffca8a" d="M8.3 21.9c1 .1 1.3 1.1.9 3.2v2.3c0 1.6.2 3.2.7 4.6.2.6 0 1.2-.6 1.4-1.7.6-2-2.1-2.3-3.2-.5-2.2-.7-4.4-.6-6.7.1-.9.9-1.7 1.9-1.6z" opacity="1" data-original="#ffca8a"></path><path fill="#682f2a" d="M8.8 34c-.3 0-.5-.1-.7-.2-.9-.5-1.2-1.9-1.5-2.9 0-.2-.1-.4-.1-.5-.6-2.5-.7-5.1-.5-8.2 0-.3.3-.5.5-.5.3 0 .5.3.5.5-.2 2.9-.1 5.5.5 7.9 0 .1.1.3.1.6.2.7.4 2 1 2.3.1 0 .2.1.5 0 .2-.1.3-.1.3-.3.1-.1.1-.3 0-.5-.4-1.2-.7-2.7-.8-4.7v-2.3c0-.3.2-.5.5-.5s.5.2.5.5v2.3c.1 1.9.4 3.3.8 4.4.1.4.1.8 0 1.2-.2.4-.5.7-.9.8-.3.1-.5.1-.7.1z" opacity="1" data-original="#682f2a"></path><circle cx="9.5" cy="16" r="2.6" fill="#616b77" opacity="1" data-original="#616b77"></circle><path fill="#682f2a" d="M9.5 19.1c-1.6 0-2.9-1.2-3.1-2.8-.1-.8.2-1.6.7-2.3s1.3-1 2.1-1.1c1.7-.2 3.2 1.1 3.4 2.8s-1.1 3.2-2.8 3.4h-.3zm0-5.2h-.2c-.6.1-1.1.3-1.4.7-.4.4-.5 1-.5 1.5.1 1.2 1.1 2 2.3 1.9s2-1.1 1.9-2.3c-.1-1-1-1.8-2.1-1.8zM10 32.6c-.2 0-.4-.2-.5-.4-.1-.3.1-.5.4-.6l4.1-1c.3-.1.5.1.6.4s-.1.5-.4.6l-4.1 1z" opacity="1" data-original="#682f2a"></path><path fill="#fa4968" d="M13.9 41.4c.2 0 .4 0 .5-.1.8-.1 1.4-.9 1.3-1.7s-.9-1.4-1.7-1.3c-2 .2-5.4.2-6.3-.6-1.2-1-2.6-6.7-3.1-11.5-.1-.8-.9-1.4-1.7-1.3s-1.5.9-1.4 1.7C1.8 29.1 3 37.9 5.7 40c2.1 1.7 6.5 1.5 8.2 1.4z" opacity="1" data-original="#fa4968"></path><path fill="#682f2a" d="M12 42c-3.1 0-5.3-.5-6.6-1.6-2.7-2.1-4-10.3-4.4-13.7-.1-1 .7-2.1 1.8-2.3 1.1-.1 2.1.7 2.3 1.7.5 5 1.9 10.4 2.9 11.2.3.3 1.5.6 3.7.6.8 0 1.6 0 2.3-.1h.2c1 0 1.9.8 2 1.7.1 1-.6 2-1.6 2.2-.2.1-.5.1-.7.1-.5.1-1.1.2-1.9.2zM3.1 25.4H3c-.6.1-1 .6-1 1.1.3 2.6 1.5 11.1 4 13.1 1.1.9 3.2 1.4 6 1.4.8 0 1.4 0 1.9-.1h.2c.1 0 .1-.1.2-.1.5-.1.9-.6.9-1.1-.1-.5-.6-.9-1.1-.9-.7.1-1.6.1-2.4.1-2.2 0-3.7-.3-4.3-.8-1.5-1.3-2.8-7.8-3.3-11.8-.1-.5-.5-.9-1-.9z" opacity="1" data-original="#682f2a"></path><path fill="#e8cec1" d="M16.1 24.8h17.7v2.9H16.1z" opacity="1" data-original="#e8cec1"></path><path fill="#682f2a" d="M33.8 28.2H16.1c-.3 0-.5-.2-.5-.5v-2.9c0-.3.2-.5.5-.5h17.7c.3 0 .5.2.5.5v2.9c0 .3-.2.5-.5.5zm-17.2-1h16.7v-1.9H16.6z" opacity="1" data-original="#682f2a"></path><path fill="#d9baa8" d="M23.6 27.7h2.8v17.4h-2.8z" opacity="1" data-original="#d9baa8"></path><path fill="#682f2a" d="M26.4 45.6h-2.8c-.3 0-.5-.2-.5-.5V27.7c0-.3.2-.5.5-.5h2.8c.3 0 .5.2.5.5v17.4c0 .3-.2.5-.5.5zm-2.3-1h1.8V28.2h-1.8zM44.1 47.8c-.1 0-.2 0-.3-.1l-3.9-2.3-3.8 2.3c-.2.1-.5.1-.7-.2-.1-.2-.1-.5.2-.7l4.1-2.5c.2-.1.4-.1.5 0l4.2 2.5c.2.1.3.4.2.7-.2.2-.3.3-.5.3z" opacity="1" data-original="#682f2a"></path><path fill="#682f2a" d="M39.9 45.3c-.3 0-.5-.2-.5-.5v-3.3c0-.3.2-.5.5-.5s.5.2.5.5v3.3c0 .3-.2.5-.5.5zM5.9 47.8c-.2 0-.3-.1-.4-.2-.1-.2-.1-.5.2-.7l4.2-2.5c.2-.1.4-.1.5 0l4.1 2.5c.2.1.3.5.2.7s-.5.3-.7.2l-3.8-2.3-3.9 2.3h-.4z" opacity="1" data-original="#682f2a"></path><path fill="#682f2a" d="M10.1 45.3c-.3 0-.5-.2-.5-.5v-3.3c0-.3.2-.5.5-.5s.5.2.5.5v3.3c0 .3-.2.5-.5.5z" opacity="1" data-original="#682f2a"></path><path fill="#6e9583" d="M15.5 18s2.4-.1 4.4-1.5c1.6.9 3.6 1.5 5.7 1.5 5.4 0 9.7-3.4 9.7-7.7 0-4.2-4.4-7.7-9.7-7.7-5.4 0-9.7 3.4-9.7 7.7 0 1.4.5 2.8 1.4 3.9-.3 1.3-.9 2.6-1.8 3.8z" opacity="1" data-original="#6e9583"></path><path fill="#682f2a" d="M15.5 18.5c-.2 0-.4-.1-.4-.3-.1-.2-.1-.4 0-.5.8-1.1 1.3-2.2 1.7-3.4-.9-1.2-1.4-2.6-1.4-4 0-4.6 4.5-8.2 10.2-8.2 5.6 0 10.2 3.7 10.2 8.2 0 4.6-4.5 8.2-10.2 8.2-1.9 0-3.9-.5-5.7-1.4-2 1.3-4.3 1.4-4.4 1.4zm4.4-2.5c.1 0 .2 0 .2.1 1.6.9 3.6 1.4 5.5 1.4 5.2 0 9.2-3.2 9.2-7.2 0-3.9-4.2-7.2-9.2-7.2-5.2 0-9.2 3.2-9.2 7.2 0 1.3.5 2.6 1.3 3.6.1.1.1.3.1.4-.2 1.1-.7 2.1-1.2 3 .8-.2 2-.5 3.1-1.3z" opacity="1" data-original="#682f2a"></path><path fill="#fff" d="M21.2 6.2c-.2 0-.3-.1-.4-.2-.2-.2-.1-.5.1-.7.4-.2.7-.4 1-.5s.5.1.6.3c.1.3-.1.5-.3.6-.2.2-.5.3-.7.4-.1.1-.2.1-.3.1zM28.6 5.6h-.2c-.8-.3-1.7-.4-2.8-.4-.7 0-1.5.1-2.1.2-.3 0-.5-.2-.6-.4 0-.3.2-.5.4-.6.7-.1 1.5-.2 2.3-.2 1.3 0 2.3.1 3.2.4.2.1.4.4.3.7-.1.2-.3.3-.5.3z" opacity=".3"></path><ellipse cx="30.8" cy="10.4" fill="#fff" rx="1.7" ry="1.8"></ellipse><path fill="#682f2a" d="M30.8 12.7c-1.2 0-2.2-1-2.2-2.3s1-2.3 2.2-2.3 2.2 1 2.2 2.3-1 2.3-2.2 2.3zm0-3.6c-.7 0-1.2.6-1.2 1.3s.5 1.3 1.2 1.3 1.2-.6 1.2-1.3-.5-1.3-1.2-1.3z"></path><ellipse cx="25.6" cy="10.4" fill="#fff" rx="1.7" ry="1.8"></ellipse><path fill="#682f2a" d="M25.6 12.7c-1.2 0-2.2-1-2.2-2.3s1-2.3 2.2-2.3 2.2 1 2.2 2.3-1 2.3-2.2 2.3zm0-3.6c-.7 0-1.2.6-1.2 1.3s.5 1.3 1.2 1.3 1.2-.6 1.2-1.3-.5-1.3-1.2-1.3z"></path><ellipse cx="20.5" cy="10.4" fill="#fff" rx="1.7" ry="1.8"></ellipse><path fill="#682f2a" d="M20.5 12.7c-1.2 0-2.2-1-2.2-2.3s1-2.3 2.2-2.3 2.2 1 2.2 2.3-1 2.3-2.2 2.3zm0-3.6c-.7 0-1.2.6-1.2 1.3s.5 1.3 1.2 1.3 1.2-.6 1.2-1.3-.5-1.3-1.2-1.3z"></path><path fill="#fff" d="M22.2 26.6h-4.4c-.3 0-.5-.2-.5-.5s.2-.5.5-.5h4.4c.3 0 .5.2.5.5s-.2.5-.5.5zM24.7 26.6h-1.1c-.3 0-.5-.2-.5-.5s.2-.5.5-.5h1.1c.3 0 .5.2.5.5s-.2.5-.5.5z" opacity=".3"></path></g></svg>