<svg xmlns="http://www.w3.org/2000/svg" version="1.1" xmlns:xlink="http://www.w3.org/1999/xlink" width="512" height="512" x="0" y="0" viewBox="0 0 512.002 512.002" style="enable-background:new 0 0 512 512" xml:space="preserve" class=""><g><circle cx="60" cy="247.001" r="25" style="fill-rule:evenodd;clip-rule:evenodd;" transform="rotate(-67.5 60 246.996)" fill="#ffdcd5" data-original="#ffdcd5"></circle><path d="M110 326.168c0-27.615-22.386-50-50-50s-50 22.385-50 50v60c0 22 18 40 40 40h60v75.833h45V386.168c0-10.997-9.001-20-20-20h-25v-40zM377.001 366.168c-10.999 0-20 9.003-20 20v115.834h45v-75.833h60c22 0 40-18 40-40v-60c0-27.615-22.386-50-50-50s-50 22.385-50 50v40h-25z" style="fill-rule:evenodd;clip-rule:evenodd;" fill="#ffdcd5" data-original="#ffdcd5"></path><circle cx="452.001" cy="247.001" r="25" style="fill-rule:evenodd;clip-rule:evenodd;" transform="rotate(-7.973 452.004 247.004)" fill="#ffdcd5" data-original="#ffdcd5"></circle><path d="M236.001 321.168h40v180.833h-40z" style="fill-rule:evenodd;clip-rule:evenodd;" fill="#8690af" data-original="#8690af"></path><path d="M256.001 10c-71.797 0-130 58.203-130 130s58.203 130 130 130c.637 0 1.274-.004 1.909-.014 35.141-.506 66.907-14.955 90.015-38.062A129.999 129.999 0 0 0 386.001 140c-.001-71.797-58.203-130-130-130z" style="fill-rule:evenodd;clip-rule:evenodd;" fill="#e8eaf0" data-original="#e8eaf0"></path><circle cx="60" cy="247.001" r="25" style="fill-rule:evenodd;clip-rule:evenodd;stroke-width:20.0001;stroke-linecap:round;stroke-linejoin:round;stroke-miterlimit:22.9256;" fill-rule="evenodd" clip-rule="evenodd" fill="none" stroke="#000000" stroke-width="20.0001" stroke-linecap="round" stroke-linejoin="round" stroke-miterlimit="22.9256" data-original="#000000"></circle><path d="M10 326.168v60c0 22 18 40 40 40h60v75.833h45V386.168c0-10.997-9.001-20-20-20h-25v-40c0-27.615-22.386-50-50-50s-50 22.386-50 50zM50 426.168v75.833" style="fill-rule:evenodd;clip-rule:evenodd;stroke-width:20.0001;stroke-linecap:round;stroke-linejoin:round;stroke-miterlimit:22.9256;" fill-rule="evenodd" clip-rule="evenodd" fill="none" stroke="#000000" stroke-width="20.0001" stroke-linecap="round" stroke-linejoin="round" stroke-miterlimit="22.9256" data-original="#000000"></path><circle cx="452.001" cy="247.001" r="25" style="fill-rule:evenodd;clip-rule:evenodd;stroke-width:20.0001;stroke-linecap:round;stroke-linejoin:round;stroke-miterlimit:22.9256;" transform="rotate(-80.781 452.006 246.994)" fill-rule="evenodd" clip-rule="evenodd" fill="none" stroke="#000000" stroke-width="20.0001" stroke-linecap="round" stroke-linejoin="round" stroke-miterlimit="22.9256" data-original="#000000"></circle><path d="M502.002 326.168v60c0 22-18 40-40 40h-60v75.833h-45V386.168c0-10.997 9.001-20 20-20h25v-40c0-27.615 22.386-50 50-50s50 22.386 50 50zM462.002 426.168v75.833M356.001 321.168h-200M301.001 502.001h-90M276.001 497.001V326.168M236.001 497.001V326.168M313.94 256.374A129.99 129.99 0 0 1 256.001 270c-71.797 0-130-58.203-130-130 0-19.691 4.385-38.357 12.222-55.081m62.69-62.694C217.64 14.388 236.307 10 256.001 10c71.797 0 130 58.203 130 130a130 130 0 0 1-30.294 83.419" style="fill-rule:evenodd;clip-rule:evenodd;stroke-width:20.0001;stroke-linecap:round;stroke-linejoin:round;stroke-miterlimit:22.9256;" fill-rule="evenodd" clip-rule="evenodd" fill="none" stroke="#000000" stroke-width="20.0001" stroke-linecap="round" stroke-linejoin="round" stroke-miterlimit="22.9256" data-original="#000000"></path><path d="M201 117.164c9.182-35.197 57.262-9.652 32.694 17.648C223.181 146.493 204.648 166.395 201 180h40M306.007 144.997h-35.006L275.996 100m35.006 0v80M377.637 227.784l-29.713 4.14-4.14-29.713" style="fill-rule:evenodd;clip-rule:evenodd;stroke-width:20.0001;stroke-linecap:round;stroke-linejoin:round;stroke-miterlimit:22.9256;" fill-rule="evenodd" clip-rule="evenodd" fill="none" stroke="#000000" stroke-width="20.0001" stroke-linecap="round" stroke-linejoin="round" stroke-miterlimit="22.9256" data-original="#000000"></path><path d="m164.072 48.082.005-.005" style="fill-rule:evenodd;clip-rule:evenodd;stroke-width:19.9998;stroke-linecap:round;stroke-linejoin:round;stroke-miterlimit:2.6131;" fill-rule="evenodd" clip-rule="evenodd" fill="none" stroke="#000000" stroke-width="19.9998" stroke-linecap="round" stroke-linejoin="round" stroke-miterlimit="2.6131" data-original="#000000"></path></g></svg>