<?xml version="1.0" encoding="UTF-8"?>
<!DOCTYPE svg PUBLIC "-//W3C//DTD SVG 1.1//EN" "http://www.w3.org/Graphics/SVG/1.1/DTD/svg11.dtd">
<svg xmlns="http://www.w3.org/2000/svg" version="1.1" width="333px" height="328px" style="shape-rendering:geometricPrecision; text-rendering:geometricPrecision; image-rendering:optimizeQuality; fill-rule:evenodd; clip-rule:evenodd" xmlns:xlink="http://www.w3.org/1999/xlink">
<g><path style="opacity:0.996" fill="#c9b6a3" d="M 181.5,59.5 C 179.331,64.5477 177.665,69.8811 176.5,75.5C 174.869,73.9412 174.036,71.9412 174,69.5C 173.241,67.9371 172.074,66.9371 170.5,66.5C 167.124,60.719 164.124,54.719 161.5,48.5C 161.938,48.5654 162.272,48.3988 162.5,48C 160.726,46.3025 159.059,44.4692 157.5,42.5C 156.311,41.5713 154.978,41.238 153.5,41.5C 153.759,39.0107 152.759,37.344 150.5,36.5C 152.309,32.4073 154.309,28.4073 156.5,24.5C 162.937,21.8203 167.104,23.8203 169,30.5C 173.196,40.2184 177.363,49.8851 181.5,59.5 Z"/></g>
<g><path style="opacity:0.997" fill="#c8b6a4" d="M 150.5,36.5 C 152.759,37.344 153.759,39.0107 153.5,41.5C 154.978,41.238 156.311,41.5713 157.5,42.5C 159.059,44.4692 160.726,46.3025 162.5,48C 162.272,48.3988 161.938,48.5654 161.5,48.5C 159.665,49.1223 158.498,50.4556 158,52.5C 148.982,73.1956 139.482,93.5289 129.5,113.5C 127.94,111.871 128.273,110.704 130.5,110C 129.633,107.684 130.299,105.684 132.5,104C 127.547,103.397 124.88,105.897 124.5,111.5C 122.516,111.383 120.85,112.05 119.5,113.5C 120.022,109.871 121.355,106.204 123.5,102.5C 123.058,101.261 122.391,100.261 121.5,99.5C 131.36,78.5846 141.027,57.5846 150.5,36.5 Z"/></g>
<g><path style="opacity:0.963" fill="#cab8a5" d="M 181.5,59.5 C 188.211,72.6236 194.545,85.9569 200.5,99.5C 199.503,99.4701 198.836,99.9701 198.5,101C 204.175,107.478 203.509,113.311 196.5,118.5C 195.378,117.37 194.044,116.703 192.5,116.5C 184.613,100.062 177.28,83.3951 170.5,66.5C 172.074,66.9371 173.241,67.9371 174,69.5C 174.036,71.9412 174.869,73.9412 176.5,75.5C 177.665,69.8811 179.331,64.5477 181.5,59.5 Z"/></g>
<g><path style="opacity:0.991" fill="#c9b7a4" d="M 178.5,108.5 C 178.36,115.933 180.86,122.599 186,128.5C 186.798,130.259 186.631,131.926 185.5,133.5C 184.833,133.167 184.167,132.833 183.5,132.5C 182.578,129.004 180.911,126.004 178.5,123.5C 177.033,123.277 175.533,122.944 174,122.5C 173.517,121.552 173.351,120.552 173.5,119.5C 172.5,119.5 171.5,119.5 170.5,119.5C 170.617,117.516 169.95,115.85 168.5,114.5C 169.815,113.105 169.481,112.105 167.5,111.5C 166.702,109.922 166.202,108.256 166,106.5C 165.329,107.252 164.496,107.586 163.5,107.5C 162.442,106.4 161.608,105.066 161,103.5C 158.074,109.688 154.907,115.688 151.5,121.5C 148.481,121.972 147.481,123.472 148.5,126C 147.33,128.185 146.164,130.351 145,132.5C 143.701,131.91 142.868,130.91 142.5,129.5C 143.754,127.666 144.421,125.666 144.5,123.5C 142.097,123.393 140.264,124.393 139,126.5C 138.504,123.84 138.338,121.173 138.5,118.5C 144.797,102.576 152.131,87.2423 160.5,72.5C 161.672,72.9186 162.672,73.5853 163.5,74.5C 168.886,85.6571 173.886,96.9904 178.5,108.5 Z"/></g>
<g><path style="opacity:0.997" fill="#c8b6a5" d="M 121.5,99.5 C 122.391,100.261 123.058,101.261 123.5,102.5C 121.355,106.204 120.022,109.871 119.5,113.5C 120.85,112.05 122.516,111.383 124.5,111.5C 124.88,105.897 127.547,103.397 132.5,104C 130.299,105.684 129.633,107.684 130.5,110C 128.273,110.704 127.94,111.871 129.5,113.5C 119.683,136.463 109.35,159.13 98.5,181.5C 97.8761,181.083 97.5427,180.416 97.5,179.5C 100.057,176.426 101.39,173.093 101.5,169.5C 99.5639,167.053 97.3972,164.053 95,160.5C 93.2039,167.4 90.0372,173.4 85.5,178.5C 97.2285,152.043 109.228,125.71 121.5,99.5 Z"/></g>
<g><path style="opacity:0.982" fill="#cab7a6" d="M 200.5,99.5 C 207.167,114.167 213.833,128.833 220.5,143.5C 218.616,143.288 217.283,142.288 216.5,140.5C 215.416,141.665 214.583,142.998 214,144.5C 212.475,144.888 210.808,144.888 209,144.5C 208.768,145.737 208.268,146.737 207.5,147.5C 202.261,137.354 197.261,127.02 192.5,116.5C 194.044,116.703 195.378,117.37 196.5,118.5C 203.509,113.311 204.175,107.478 198.5,101C 198.836,99.9701 199.503,99.4701 200.5,99.5 Z"/></g>
<g><path style="opacity:0.972" fill="#cab8a7" d="M 178.5,108.5 C 193.649,140.14 208.315,172.14 222.5,204.5C 222.145,205.522 221.478,206.189 220.5,206.5C 216.627,204.57 212.294,203.903 207.5,204.5C 208.848,203.399 210.348,202.399 212,201.5C 214.243,203.282 216.743,203.782 219.5,203C 217.963,201.89 217.297,200.39 217.5,198.5C 215.085,198.627 212.751,198.793 210.5,199C 208.845,197.556 208.178,195.722 208.5,193.5C 206.234,193.859 204.401,193.192 203,191.5C 202.333,192.833 201.333,193.833 200,194.5C 193.734,193.851 187.567,193.185 181.5,192.5C 188.2,192.83 194.866,192.497 201.5,191.5C 188.821,163.478 176.155,135.478 163.5,107.5C 164.496,107.586 165.329,107.252 166,106.5C 166.202,108.256 166.702,109.922 167.5,111.5C 169.481,112.105 169.815,113.105 168.5,114.5C 169.95,115.85 170.617,117.516 170.5,119.5C 171.5,119.5 172.5,119.5 173.5,119.5C 173.351,120.552 173.517,121.552 174,122.5C 175.533,122.944 177.033,123.277 178.5,123.5C 180.911,126.004 182.578,129.004 183.5,132.5C 184.167,132.833 184.833,133.167 185.5,133.5C 186.631,131.926 186.798,130.259 186,128.5C 180.86,122.599 178.36,115.933 178.5,108.5 Z"/></g>
<g><path style="opacity:0.986" fill="#c9b7a5" d="M 138.5,118.5 C 138.338,121.173 138.504,123.84 139,126.5C 140.264,124.393 142.097,123.393 144.5,123.5C 144.421,125.666 143.754,127.666 142.5,129.5C 142.868,130.91 143.701,131.91 145,132.5C 146.164,130.351 147.33,128.185 148.5,126C 147.481,123.472 148.481,121.972 151.5,121.5C 146.607,134.281 140.94,146.614 134.5,158.5C 132.35,160.535 130.016,162.202 127.5,163.5C 128.211,167.546 128.211,171.212 127.5,174.5C 127.167,174.833 126.833,175.167 126.5,175.5C 124.819,172.208 124.486,168.874 125.5,165.5C 124.448,165.649 123.448,165.483 122.5,165C 122.12,162.674 121.12,160.841 119.5,159.5C 125.597,145.644 131.93,131.978 138.5,118.5 Z"/></g>
<g><path style="opacity:0.985" fill="#c8b7a4" d="M 182.5,171.5 C 181.325,171.719 180.325,171.386 179.5,170.5C 178.561,168.947 177.394,167.613 176,166.5C 171.659,168.578 168.992,167.245 168,162.5C 166.549,160.536 164.716,159.203 162.5,158.5C 159.138,151.942 156.471,145.108 154.5,138C 155.563,133.701 157.063,129.534 159,125.5C 160.356,124.62 161.856,124.286 163.5,124.5C 170.026,140.075 176.359,155.741 182.5,171.5 Z"/></g>
<g><path style="opacity:0.986" fill="#c9b6a3" d="M 134.5,158.5 C 133.461,161.782 132.128,164.948 130.5,168C 142.514,168.833 154.514,168.666 166.5,167.5C 164.878,164.592 163.544,161.592 162.5,158.5C 164.716,159.203 166.549,160.536 168,162.5C 168.992,167.245 171.659,168.578 176,166.5C 177.394,167.613 178.561,168.947 179.5,170.5C 180.325,171.386 181.325,171.719 182.5,171.5C 184.468,173.939 185.801,176.773 186.5,180C 186.095,180.945 185.428,181.612 184.5,182C 175.84,182.5 167.173,182.666 158.5,182.5C 166.657,181.671 174.99,181.171 183.5,181C 159.146,181.159 135.146,180.326 111.5,178.5C 113.775,172.011 116.442,165.677 119.5,159.5C 121.12,160.841 122.12,162.674 122.5,165C 123.448,165.483 124.448,165.649 125.5,165.5C 124.486,168.874 124.819,172.208 126.5,175.5C 126.833,175.167 127.167,174.833 127.5,174.5C 128.211,171.212 128.211,167.546 127.5,163.5C 130.016,162.202 132.35,160.535 134.5,158.5 Z"/></g>
<g><path style="opacity:0.972" fill="#c9b7a5" d="M 220.5,143.5 C 234.444,173.721 248.111,204.054 261.5,234.5C 259.496,235.673 257.996,237.34 257,239.5C 256.682,237.939 255.849,236.772 254.5,236C 256.701,235.223 256.701,234.056 254.5,232.5C 253.673,234.162 252.507,235.495 251,236.5C 250.53,234.226 249.53,232.226 248,230.5C 247.023,229.226 246.189,229.226 245.5,230.5C 232.066,203.291 219.399,175.624 207.5,147.5C 208.268,146.737 208.768,145.737 209,144.5C 210.808,144.888 212.475,144.888 214,144.5C 214.583,142.998 215.416,141.665 216.5,140.5C 217.283,142.288 218.616,143.288 220.5,143.5 Z"/></g>
<g><path style="opacity:0.992" fill="#cbb8a5" d="M 98.5,181.5 C 96.8815,185.069 95.5481,188.736 94.5,192.5C 123.5,192.5 152.5,192.5 181.5,192.5C 187.567,193.185 193.734,193.851 200,194.5C 201.333,193.833 202.333,192.833 203,191.5C 204.401,193.192 206.234,193.859 208.5,193.5C 208.178,195.722 208.845,197.556 210.5,199C 212.751,198.793 215.085,198.627 217.5,198.5C 217.297,200.39 217.963,201.89 219.5,203C 216.743,203.782 214.243,203.282 212,201.5C 210.348,202.399 208.848,203.399 207.5,204.5C 186.815,204.892 165.982,204.892 145,204.5C 126.821,204.5 108.987,205.167 91.5,206.5C 89.8561,206.286 88.3561,206.62 87,207.5C 82.1183,217.924 77.285,228.257 72.5,238.5C 71.8501,238.196 71.1835,237.863 70.5,237.5C 69.3739,239.793 68.0406,241.96 66.5,244C 66.9574,244.414 67.2907,244.914 67.5,245.5C 65.476,247.69 63.6427,250.023 62,252.5C 60.89,250.058 59.39,247.891 57.5,246C 58.8802,244.676 59.2135,243.343 58.5,242C 60.9803,241.085 61.6469,239.585 60.5,237.5C 62.6675,234.531 64.0008,231.197 64.5,227.5C 67.8488,226.17 68.1821,226.67 65.5,229C 67.8771,229.033 69.2105,227.7 69.5,225C 69.0556,223.238 68.5556,223.405 68,225.5C 67.8784,223.563 67.045,222.23 65.5,221.5C 71.9097,207.016 78.5763,192.682 85.5,178.5C 90.0372,173.4 93.2039,167.4 95,160.5C 97.3972,164.053 99.5639,167.053 101.5,169.5C 101.39,173.093 100.057,176.426 97.5,179.5C 97.5427,180.416 97.8761,181.083 98.5,181.5 Z"/></g>
<g><path style="opacity:0.721" fill="#b3a99a" d="M 111.5,178.5 C 135.146,180.326 159.146,181.159 183.5,181C 174.99,181.171 166.657,181.671 158.5,182.5C 143.163,182.667 127.83,182.5 112.5,182C 110.505,181.076 110.172,179.91 111.5,178.5 Z"/></g>
<g><path style="opacity:0.76" fill="#bcac9d" d="M 207.5,204.5 C 212.294,203.903 216.627,204.57 220.5,206.5C 177.5,206.5 134.5,206.5 91.5,206.5C 108.987,205.167 126.821,204.5 145,204.5C 165.982,204.892 186.815,204.892 207.5,204.5 Z"/></g>
<g><path style="opacity:0.999" fill="#c9b7a5" d="M 236.5,235.5 C 235.078,235.291 233.745,234.791 232.5,234C 233.696,233.346 233.696,232.846 232.5,232.5C 231.365,234.707 230.699,237.04 230.5,239.5C 228.265,239.205 226.265,239.539 224.5,240.5C 222.774,238.058 221.274,235.391 220,232.5C 218.989,231.663 217.822,231.33 216.5,231.5C 215.449,230.778 214.782,229.778 214.5,228.5C 214.5,227.5 214.5,226.5 214.5,225.5C 212.409,225.318 210.409,225.652 208.5,226.5C 206.193,225.193 206.36,223.86 209,222.5C 211.185,223.758 213.352,223.758 215.5,222.5C 217.115,223.154 218.782,223.654 220.5,224C 222.577,227.371 225.577,229.204 229.5,229.5C 229.945,226.635 229.278,224.135 227.5,222C 222.851,221.336 218.184,220.836 213.5,220.5C 173.801,221.804 134.134,221.804 94.5,220.5C 93.1667,221.833 93.1667,223.167 94.5,224.5C 96.8631,225.17 99.1964,225.837 101.5,226.5C 104.333,228.164 107,229.831 109.5,231.5C 107.143,231.337 104.81,231.503 102.5,232C 100.541,235.384 98.8747,238.884 97.5,242.5C 95.9519,242.179 95.2852,241.179 95.5,239.5C 94.1266,239.657 92.7932,239.49 91.5,239C 92.2066,236.48 93.04,233.98 94,231.5C 95.4743,237.241 97.3076,237.575 99.5,232.5C 97.1956,230.569 95.3622,228.236 94,225.5C 93.6667,227.167 93.3333,228.833 93,230.5C 92.6667,230.167 92.3333,229.833 92,229.5C 91.6322,230.91 90.7989,231.91 89.5,232.5C 88.5258,234.743 88.1924,237.076 88.5,239.5C 87.1667,239.5 85.8333,239.5 84.5,239.5C 84.6633,241.857 84.4966,244.19 84,246.5C 82.4131,246.342 80.9131,247.009 79.5,248.5C 83.8458,237.933 88.8458,227.766 94.5,218C 138.833,217.333 183.167,217.333 227.5,218C 231.53,223.226 234.53,229.059 236.5,235.5 Z"/></g>
<g><path style="opacity:1" fill="#c8b7a1" d="M 214.5,228.5 C 213.85,228.804 213.183,229.137 212.5,229.5C 206.627,227.931 200.627,227.098 194.5,227C 195.5,226.667 196.5,226.333 197.5,226C 174.323,226.053 151.156,225.887 128,225.5C 122.833,225.167 117.667,224.833 112.5,224.5C 111.473,222.976 109.973,222.309 108,222.5C 106.128,223.035 104.462,223.035 103,222.5C 101.812,223.563 101.312,224.897 101.5,226.5C 99.1964,225.837 96.8631,225.17 94.5,224.5C 93.1667,223.167 93.1667,221.833 94.5,220.5C 134.134,221.804 173.801,221.804 213.5,220.5C 218.184,220.836 222.851,221.336 227.5,222C 229.278,224.135 229.945,226.635 229.5,229.5C 225.577,229.204 222.577,227.371 220.5,224C 218.782,223.654 217.115,223.154 215.5,222.5C 213.352,223.758 211.185,223.758 209,222.5C 206.36,223.86 206.193,225.193 208.5,226.5C 210.409,225.652 212.409,225.318 214.5,225.5C 214.5,226.5 214.5,227.5 214.5,228.5 Z"/></g>
<g><path style="opacity:1" fill="#c0ac9b" d="M 214.5,228.5 C 214.782,229.778 215.449,230.778 216.5,231.5C 180.833,231.5 145.167,231.5 109.5,231.5C 107,229.831 104.333,228.164 101.5,226.5C 101.312,224.897 101.812,223.563 103,222.5C 104.462,223.035 106.128,223.035 108,222.5C 109.973,222.309 111.473,222.976 112.5,224.5C 117.667,224.833 122.833,225.167 128,225.5C 151.156,225.887 174.323,226.053 197.5,226C 196.5,226.333 195.5,226.667 194.5,227C 200.627,227.098 206.627,227.931 212.5,229.5C 213.183,229.137 213.85,228.804 214.5,228.5 Z"/></g>
<g><path style="opacity:0.971" fill="#c9b8a7" d="M 236.5,235.5 C 245.337,253.974 254.004,272.641 262.5,291.5C 260.145,290.906 257.978,289.906 256,288.5C 255.055,288.905 254.388,289.572 254,290.5C 251.383,287.438 251.217,284.105 253.5,280.5C 253.696,276.397 252.363,272.897 249.5,270C 250.641,269.259 250.641,268.425 249.5,267.5C 245.664,264.437 244.664,265.271 246.5,270C 246.095,270.945 245.428,271.612 244.5,272C 244.833,272.333 245.167,272.667 245.5,273C 244.262,272.923 243.262,273.089 242.5,273.5C 245.151,277.477 247.484,281.644 249.5,286C 248.424,287.726 248.257,289.559 249,291.5C 249.333,291.167 249.667,290.833 250,290.5C 250.245,292.663 251.245,294.33 253,295.5C 253.168,299.759 254.001,303.092 255.5,305.5C 266.378,305.729 277.212,306.062 288,306.5C 289.757,305.881 290.924,304.714 291.5,303C 290.767,301.234 290.433,299.401 290.5,297.5C 293.044,300.292 294.044,303.458 293.5,307C 288.347,307.647 283.181,308.147 278,308.5C 271.314,307.44 264.814,307.44 258.5,308.5C 257.5,308 256.5,307.5 255.5,307C 244.217,285.268 233.884,263.101 224.5,240.5C 226.265,239.539 228.265,239.205 230.5,239.5C 230.699,237.04 231.365,234.707 232.5,232.5C 233.696,232.846 233.696,233.346 232.5,234C 233.745,234.791 235.078,235.291 236.5,235.5 Z"/></g>
<g><path style="opacity:0.981" fill="#c9b7a4" d="M 97.5,242.5 C 89.6025,259.624 82.2691,276.958 75.5,294.5C 74.316,296.41 72.816,296.743 71,295.5C 70.3076,296.025 69.8076,296.692 69.5,297.5C 70.6477,299.149 71.981,300.649 73.5,302C 69.593,303.856 65.593,303.856 61.5,302C 60.8742,301.25 60.3742,300.416 60,299.5C 58.4516,300.914 57.785,302.58 58,304.5C 66.9019,305.793 75.7353,306.793 84.5,307.5C 74.5558,308.148 64.5558,308.148 54.5,307.5C 62.2456,287.6 70.5789,267.934 79.5,248.5C 80.9131,247.009 82.4131,246.342 84,246.5C 84.4966,244.19 84.6633,241.857 84.5,239.5C 85.8333,239.5 87.1667,239.5 88.5,239.5C 88.1924,237.076 88.5258,234.743 89.5,232.5C 90.7989,231.91 91.6322,230.91 92,229.5C 92.3333,229.833 92.6667,230.167 93,230.5C 93.3333,228.833 93.6667,227.167 94,225.5C 95.3622,228.236 97.1956,230.569 99.5,232.5C 97.3076,237.575 95.4743,237.241 94,231.5C 93.04,233.98 92.2066,236.48 91.5,239C 92.7932,239.49 94.1266,239.657 95.5,239.5C 95.2852,241.179 95.9519,242.179 97.5,242.5 Z"/></g>
<g><path style="opacity:1" fill="#c7b59c" d="M 135.5,241.5 C 159.908,241.177 184.241,241.51 208.5,242.5C 209.105,244.026 210.271,245.026 212,245.5C 211.545,248.665 212.378,251.665 214.5,254.5C 212.955,255.452 211.288,255.785 209.5,255.5C 209.662,257.527 209.495,259.527 209,261.5C 207.929,258.887 207.095,258.887 206.5,261.5C 205.275,260.063 204.275,258.396 203.5,256.5C 174.5,255.167 145.5,255.167 116.5,256.5C 116.058,257.739 115.391,258.739 114.5,259.5C 114.565,259.062 114.399,258.728 114,258.5C 113.411,260.863 111.911,261.863 109.5,261.5C 109.292,259.08 109.626,256.747 110.5,254.5C 110.154,253.304 109.654,253.304 109,254.5C 108.163,252.649 107.329,250.816 106.5,249C 107.09,247.701 108.09,246.868 109.5,246.5C 110.014,247.895 111.514,248.895 114,249.5C 144.788,248.355 175.455,248.355 206,249.5C 207.188,248.437 207.688,247.103 207.5,245.5C 175.498,245.667 143.498,245.5 111.5,245C 119.799,244.237 127.799,243.071 135.5,241.5 Z"/></g>
<g><path style="opacity:0.986" fill="#c8b7a5" d="M 135.5,241.5 C 127.799,243.071 119.799,244.237 111.5,245C 143.498,245.5 175.498,245.667 207.5,245.5C 207.688,247.103 207.188,248.437 206,249.5C 175.455,248.355 144.788,248.355 114,249.5C 111.514,248.895 110.014,247.895 109.5,246.5C 108.09,246.868 107.09,247.701 106.5,249C 107.329,250.816 108.163,252.649 109,254.5C 109.654,253.304 110.154,253.304 110.5,254.5C 109.626,256.747 109.292,259.08 109.5,261.5C 111.911,261.863 113.411,260.863 114,258.5C 114.399,258.728 114.565,259.062 114.5,259.5C 111.23,268.301 107.564,276.967 103.5,285.5C 102.378,283.712 102.211,281.712 103,279.5C 106.237,275.99 106.07,272.49 102.5,269C 103.308,268.692 103.975,268.192 104.5,267.5C 103.902,266.205 103.402,264.872 103,263.5C 102.167,264.5 101.333,265.5 100.5,266.5C 99.787,264.565 98.787,264.232 97.5,265.5C 100.735,257.965 104.068,250.465 107.5,243C 116.766,241.614 126.1,241.114 135.5,241.5 Z"/></g>
<g><path style="opacity:0.993" fill="#c9b7a5" d="M 261.5,234.5 C 271.617,254.406 280.951,274.739 289.5,295.5C 286.785,290.925 283.785,286.425 280.5,282C 280.833,281.667 281.167,281.333 281.5,281C 278.773,278.044 277.273,274.544 277,270.5C 274.588,273.362 273.921,276.695 275,280.5C 276.925,281.88 278.759,283.38 280.5,285C 279.833,285.333 279.167,285.667 278.5,286C 279.987,289.499 278.987,290.833 275.5,290C 276.167,291 276.833,292 277.5,293C 275.889,295.042 274.389,297.209 273,299.5C 272.5,299 272,298.5 271.5,298C 268.833,297.667 266.167,297.333 263.5,297C 261.073,295.446 261.073,294.279 263.5,293.5C 267,296.237 270.333,296.071 273.5,293C 263.743,272.322 254.41,251.489 245.5,230.5C 246.189,229.226 247.023,229.226 248,230.5C 249.53,232.226 250.53,234.226 251,236.5C 252.507,235.495 253.673,234.162 254.5,232.5C 256.701,234.056 256.701,235.223 254.5,236C 255.849,236.772 256.682,237.939 257,239.5C 257.996,237.34 259.496,235.673 261.5,234.5 Z"/></g>
<g><path style="opacity:0.989" fill="#c8b7a5" d="M 65.5,221.5 C 67.045,222.23 67.8784,223.563 68,225.5C 68.5556,223.405 69.0556,223.238 69.5,225C 69.2105,227.7 67.8771,229.033 65.5,229C 68.1821,226.67 67.8488,226.17 64.5,227.5C 64.0008,231.197 62.6675,234.531 60.5,237.5C 61.6469,239.585 60.9803,241.085 58.5,242C 59.2135,243.343 58.8802,244.676 57.5,246C 59.39,247.891 60.89,250.058 62,252.5C 63.6427,250.023 65.476,247.69 67.5,245.5C 67.2907,244.914 66.9574,244.414 66.5,244C 68.0406,241.96 69.3739,239.793 70.5,237.5C 71.1835,237.863 71.8501,238.196 72.5,238.5C 62.3451,260.812 52.1785,283.145 42,305.5C 41.0975,306.701 39.9308,307.535 38.5,308C 34.7973,308.579 31.1306,308.412 27.5,307.5C 27.3398,305.801 27.5065,304.134 28,302.5C 40.5141,275.474 53.0141,248.474 65.5,221.5 Z"/></g>
<g><path style="opacity:1" fill="#c8b7a5" d="M 208.5,242.5 C 209.978,242.238 211.311,242.571 212.5,243.5C 222.644,264.288 232.644,285.121 242.5,306C 237.61,309.068 232.61,309.235 227.5,306.5C 220.231,291.629 213.231,276.629 206.5,261.5C 207.095,258.887 207.929,258.887 209,261.5C 209.495,259.527 209.662,257.527 209.5,255.5C 211.288,255.785 212.955,255.452 214.5,254.5C 212.378,251.665 211.545,248.665 212,245.5C 210.271,245.026 209.105,244.026 208.5,242.5 Z"/></g>
<g><path style="opacity:0.989" fill="#c8b6a2" d="M 103.5,285.5 C 100.348,292.474 97.181,299.474 94,306.5C 90.9433,307.451 87.7766,307.784 84.5,307.5C 75.7353,306.793 66.9019,305.793 58,304.5C 57.785,302.58 58.4516,300.914 60,299.5C 60.3742,300.416 60.8742,301.25 61.5,302C 65.593,303.856 69.593,303.856 73.5,302C 71.981,300.649 70.6477,299.149 69.5,297.5C 69.8076,296.692 70.3076,296.025 71,295.5C 72.816,296.743 74.316,296.41 75.5,294.5C 78.8307,295.974 81.9973,295.641 85,293.5C 88.9066,284.023 93.0733,274.689 97.5,265.5C 98.787,264.232 99.787,264.565 100.5,266.5C 101.333,265.5 102.167,264.5 103,263.5C 103.402,264.872 103.902,266.205 104.5,267.5C 103.975,268.192 103.308,268.692 102.5,269C 106.07,272.49 106.237,275.99 103,279.5C 102.211,281.712 102.378,283.712 103.5,285.5 Z"/></g>
<g><path style="opacity:0.999" fill="#c9b6a1" d="M 262.5,291.5 C 262.833,292.167 263.167,292.833 263.5,293.5C 261.073,294.279 261.073,295.446 263.5,297C 266.167,297.333 268.833,297.667 271.5,298C 272,298.5 272.5,299 273,299.5C 274.389,297.209 275.889,295.042 277.5,293C 276.833,292 276.167,291 275.5,290C 278.987,290.833 279.987,289.499 278.5,286C 279.167,285.667 279.833,285.333 280.5,285C 278.759,283.38 276.925,281.88 275,280.5C 273.921,276.695 274.588,273.362 277,270.5C 277.273,274.544 278.773,278.044 281.5,281C 281.167,281.333 280.833,281.667 280.5,282C 283.785,286.425 286.785,290.925 289.5,295.5C 290.338,295.842 290.672,296.508 290.5,297.5C 290.433,299.401 290.767,301.234 291.5,303C 290.924,304.714 289.757,305.881 288,306.5C 277.212,306.062 266.378,305.729 255.5,305.5C 254.001,303.092 253.168,299.759 253,295.5C 251.245,294.33 250.245,292.663 250,290.5C 249.667,290.833 249.333,291.167 249,291.5C 248.257,289.559 248.424,287.726 249.5,286C 247.484,281.644 245.151,277.477 242.5,273.5C 243.262,273.089 244.262,272.923 245.5,273C 245.167,272.667 244.833,272.333 244.5,272C 245.428,271.612 246.095,270.945 246.5,270C 244.664,265.271 245.664,264.437 249.5,267.5C 250.641,268.425 250.641,269.259 249.5,270C 252.363,272.897 253.696,276.397 253.5,280.5C 251.217,284.105 251.383,287.438 254,290.5C 254.388,289.572 255.055,288.905 256,288.5C 257.978,289.906 260.145,290.906 262.5,291.5 Z"/></g>
</svg>
