<svg xmlns="http://www.w3.org/2000/svg" version="1.1" xmlns:xlink="http://www.w3.org/1999/xlink" width="512" height="512" x="0" y="0" viewBox="0 0 512.104 512.104" style="enable-background:new 0 0 512 512" xml:space="preserve" class=""><g><circle cx="256.052" cy="256" r="256" fill="#ffce00" opacity="1" data-original="#ffce00" class=""></circle><path fill="#ff9d00" d="M512.052 256.104c0-18.597-1.983-36.73-5.749-54.201L409.499 105.1l-4.998 7.02-28.884-28.884-69.562 140.247L165.808 83.236l-63.203 323.872 99.246 99.247c17.471 3.766 35.604 5.749 54.201 5.749 141.385 0 256-114.615 256-256z" opacity="1" data-original="#ff9d00"></path><path fill="#fe8205" d="M102.604 105.1h153.849v72.941H102.604z" opacity="1" data-original="#fe8205" class=""></path><path fill="#ffffff" d="M102.604 178.041h153.849v229.067H102.604z" opacity="1" data-original="#ffffff"></path><path fill="#fa5d0f" d="M255.696 105.1h153.803v72.941H255.696z" opacity="1" data-original="#fa5d0f"></path><path fill="#e9edf5" d="M255.696 178.041h153.803v229.067H255.696z" opacity="1" data-original="#e9edf5"></path><path fill="#636978" d="M136.486 83.236h29.321v51.801h-29.321z" opacity="1" data-original="#636978" class=""></path><path fill="#414952" d="M346.296 83.236h29.321v51.801h-29.321z" opacity="1" data-original="#414952"></path><path fill="#636978" d="m247.701 194.201-29.565 29.185 12.435 13.07 14.212-14.339v56.721h11.671v-84.637z" opacity="1" data-original="#636978" class=""></path><path fill="#414952" d="M255.696 194.201h10.913v84.637h-10.913z" opacity="1" data-original="#414952"></path><g fill="#636978"><path d="M149.873 372.404v-27.111l-25.498-40.112h19.552l14.614 24.793 14.412-24.793h19.652l-25.397 40.112v27.111zM197.545 372.404v-67.223h49.284v15.118H214.88v10.482h31.243v15.118H214.88v11.389h31.949v15.118h-49.284zM249.752 372.404h6.702v-17.809z" fill="#636978" opacity="1" data-original="#636978" class=""></path></g><path fill="#414952" d="M296.819 305.18h-21.77l-19.353 51.428v15.795h13.709l3.326-9.675h26.507l3.325 9.675h19.653zm-19.453 42.431 8.567-25.297 8.566 25.297zM364.647 372.404l-11.288-22.576h-8.869v22.576h-17.335v-67.223h33.662c14.916 0 23.382 9.877 23.382 22.374 0 11.691-7.155 17.94-13.404 20.157l13.707 24.692zm1.915-44.95c0-4.535-3.83-7.156-8.365-7.156H344.49v14.412h13.707c4.535 0 8.365-2.519 8.365-7.256z" opacity="1" data-original="#414952"></path></g></svg>