<svg xmlns="http://www.w3.org/2000/svg" version="1.1" xmlns:xlink="http://www.w3.org/1999/xlink" width="512" height="512" x="0" y="0" viewBox="0 0 512 512" style="enable-background:new 0 0 512 512" xml:space="preserve" class=""><g><linearGradient id="a"><stop offset="0" stop-color="#f308fd"></stop><stop offset="1" stop-color="#27bae2"></stop></linearGradient><linearGradient xlink:href="#a" id="b" x1="91.168" x2="598.172" y1="600.168" y2="93.164" gradientUnits="userSpaceOnUse"></linearGradient><linearGradient xlink:href="#a" id="c" x1="5.375" x2="512.378" y1="514.375" y2="7.372" gradientUnits="userSpaceOnUse"></linearGradient><linearGradient xlink:href="#a" id="d" x1="-47.85" x2="459.154" y1="461.15" y2="-45.853" gradientUnits="userSpaceOnUse"></linearGradient><linearGradient xlink:href="#a" id="e" x1="128.146" x2="635.15" y1="637.146" y2="130.141" gradientUnits="userSpaceOnUse"></linearGradient><linearGradient xlink:href="#a" id="f" x1="127.165" x2="634.169" y1="636.165" y2="129.161" gradientUnits="userSpaceOnUse"></linearGradient><linearGradient xlink:href="#a" id="g" x1="-138.505" x2="368.499" y1="370.495" y2="-136.509" gradientUnits="userSpaceOnUse"></linearGradient><linearGradient xlink:href="#a" id="h" x1="-88.78" x2="418.224" y1="420.22" y2="-86.784" gradientUnits="userSpaceOnUse"></linearGradient><linearGradient xlink:href="#a" id="i" x1="-82.181" x2="424.823" y1="426.819" y2="-80.184" gradientUnits="userSpaceOnUse"></linearGradient><linearGradient xlink:href="#a" id="j" x1="-53.644" x2="453.36" y1="455.356" y2="-51.647" gradientUnits="userSpaceOnUse"></linearGradient><linearGradient xlink:href="#a" id="k" x1="-21.904" x2="485.099" y1="487.094" y2="-19.909" gradientUnits="userSpaceOnUse"></linearGradient><linearGradient xlink:href="#a" id="l" x1="46.554" x2="553.557" y1="555.554" y2="48.55" gradientUnits="userSpaceOnUse"></linearGradient><linearGradient xlink:href="#a" id="m" x1="99.445" x2="606.448" y1="608.445" y2="101.443" gradientUnits="userSpaceOnUse"></linearGradient><linearGradient xlink:href="#a" id="n" x1="33.023" x2="540.028" y1="542.022" y2="35.018" gradientUnits="userSpaceOnUse"></linearGradient><linearGradient xlink:href="#a" id="o" x1="33.023" x2="540.027" y1="542.023" y2="35.019" gradientUnits="userSpaceOnUse"></linearGradient><linearGradient xlink:href="#a" id="p" x1="33.022" x2="540.025" y1="542.022" y2="35.018" gradientUnits="userSpaceOnUse"></linearGradient><linearGradient xlink:href="#a" id="q" x1="61.378" x2="568.381" y1="570.378" y2="63.375" gradientUnits="userSpaceOnUse"></linearGradient><linearGradient xlink:href="#a" id="r" x1="4.668" x2="511.672" y1="513.668" y2="6.664" gradientUnits="userSpaceOnUse"></linearGradient><linearGradient xlink:href="#a" id="s" x1="4.668" x2="511.673" y1="513.668" y2="6.663" gradientUnits="userSpaceOnUse"></linearGradient><linearGradient xlink:href="#a" id="t" x1="61.377" x2="568.38" y1="570.377" y2="63.374" gradientUnits="userSpaceOnUse"></linearGradient><linearGradient xlink:href="#a" id="u" x1="150.33" x2="657.334" y1="659.328" y2="152.324" gradientUnits="userSpaceOnUse"></linearGradient><linearGradient xlink:href="#a" id="v" x1="-9.263" x2="497.742" y1="499.737" y2="-7.267" gradientUnits="userSpaceOnUse"></linearGradient><path fill="url(#b)" d="M237.367 508.74c-5.743 0-11.618-1.328-17.324-3.981-10.714-4.978-19.57-14.061-24.938-25.576l-14.7-31.523a3.998 3.998 0 0 1 1.935-5.315 3.997 3.997 0 0 1 5.315 1.935l14.7 31.523c4.574 9.811 12.053 17.518 21.059 21.702 8.769 4.076 17.94 4.296 25.82.621a4 4 0 0 1 3.38 7.25 35.909 35.909 0 0 1-15.247 3.364z" opacity="1" data-original="url(#b)"></path><path fill="url(#c)" d="M165.465 410.153a3.998 3.998 0 0 1-3.627-2.311L128.85 337.1a4.001 4.001 0 0 1 7.251-3.38l32.987 70.742a4 4 0 0 1-3.623 5.691z" opacity="1" data-original="url(#c)"></path><path fill="url(#d)" d="M100.733 271.333a3.999 3.999 0 0 1-3.628-2.311l-37.039-79.431a4 4 0 0 1-.237-2.73l25.862-96.039a4 4 0 0 1 2.172-2.585L269.285 3.635a4 4 0 0 1 5.317 1.934l116.695 250.25a3.999 3.999 0 0 1-1.935 5.315 3.995 3.995 0 0 1-5.315-1.935L269.043 12.576 92.932 94.7l-24.999 92.832 36.423 78.109a3.999 3.999 0 0 1-1.935 5.315 3.973 3.973 0 0 1-1.688.377z" opacity="1" data-original="url(#d)" class=""></path><path fill="url(#e)" d="M351.722 410.152a3.999 3.999 0 0 1-1.693-7.626l27.804-12.965a4 4 0 0 1 3.38 7.251l-27.804 12.965a3.984 3.984 0 0 1-1.687.375z" opacity="1" data-original="url(#e)"></path><path fill="url(#f)" d="M250.927 505.751a4 4 0 0 1-3.628-2.311 3.998 3.998 0 0 1 1.935-5.315l.019-.01c16.504-7.71 22.343-30.247 13.017-50.251a4 4 0 0 1 1.935-5.315l54.301-25.322a3.996 3.996 0 0 1 5.314 1.935 3.999 3.999 0 0 1-1.934 5.315l-50.804 23.691c5.388 14.074 4.573 28.899-1.31 40.379l95.478-44.521a3.996 3.996 0 0 1 5.315 1.935 3.999 3.999 0 0 1-1.935 5.315l-116.016 54.1a4.002 4.002 0 0 1-1.687.375z" opacity="1" data-original="url(#f)" class=""></path><path fill="url(#g)" d="M63.692 191.901a4.003 4.003 0 0 1-3.863-5.041l25.862-96.039a4 4 0 0 1 7.488-.651l32.167 68.98a4.002 4.002 0 0 1-1.934 5.316l-58.03 27.059a3.976 3.976 0 0 1-1.69.376zm26.872-88.408-20.776 77.151 46.617-21.737z" opacity="1" data-original="url(#g)"></path><path fill="url(#h)" d="M153.482 150.032a4 4 0 0 1-1.693-7.626l119.655-55.798a3.996 3.996 0 0 1 5.315 1.935 3.999 3.999 0 0 1-1.935 5.315L155.17 149.656a3.986 3.986 0 0 1-1.688.376z" opacity="1" data-original="url(#h)" class=""></path><path fill="url(#i)" d="M109.938 215.322a4 4 0 0 1-1.693-7.627l87.627-40.86a4 4 0 1 1 3.379 7.251l-87.625 40.859a3.958 3.958 0 0 1-1.688.377z" opacity="1" data-original="url(#i)"></path><path fill="url(#j)" d="M231.014 158.864a4 4 0 0 1-1.693-7.626l59.354-27.679a3.997 3.997 0 0 1 5.315 1.935 3.999 3.999 0 0 1-1.935 5.315l-59.354 27.679a3.97 3.97 0 0 1-1.687.376z" opacity="1" data-original="url(#j)"></path><path fill="url(#k)" d="M153.63 309.02a4 4 0 0 1-3.628-2.311l-26.462-56.745a4.002 4.002 0 0 1 1.934-5.316l180.433-84.138a4 4 0 0 1 5.316 1.934l26.459 56.746a3.999 3.999 0 0 1-1.934 5.315l-44.189 20.606a4 4 0 0 1-3.38-7.25l40.564-18.916-23.079-49.495-173.184 80.758 23.081 49.494 17.566-8.191a3.996 3.996 0 0 1 5.315 1.935 3.999 3.999 0 0 1-1.935 5.315l-21.191 9.882a3.96 3.96 0 0 1-1.686.377z" opacity="1" data-original="url(#k)" class=""></path><path fill="url(#l)" d="M325.017 274.084a3.999 3.999 0 0 1-1.693-7.626l26.273-12.252a3.999 3.999 0 1 1 3.38 7.25l-26.273 12.252a3.985 3.985 0 0 1-1.687.376z" opacity="1" data-original="url(#l)"></path><path fill="url(#m)" d="M328.715 369.62a4.002 4.002 0 0 1-1.693-7.626l50.813-23.692a3.997 3.997 0 0 1 5.314 1.936 3.999 3.999 0 0 1-1.935 5.315l-50.812 23.692a3.984 3.984 0 0 1-1.687.375z" opacity="1" data-original="url(#m)"></path><path fill="url(#n)" d="M256 407.656c-48.861 0-88.612-39.751-88.612-88.612 0-48.86 39.751-88.611 88.612-88.611 48.86 0 88.611 39.751 88.611 88.611 0 48.861-39.751 88.612-88.611 88.612zm0-169.223c-44.451 0-80.612 36.162-80.612 80.611 0 44.45 36.161 80.612 80.612 80.612 44.449 0 80.611-36.162 80.611-80.612 0-44.449-36.162-80.611-80.611-80.611z" opacity="1" data-original="url(#n)" class=""></path><path fill="url(#o)" d="M256 380.652c-33.971 0-61.608-27.637-61.608-61.608 0-33.97 27.638-61.607 61.608-61.607s61.608 27.637 61.608 61.607c0 33.972-27.637 61.608-61.608 61.608zm0-115.215c-29.56 0-53.608 24.048-53.608 53.607 0 29.56 24.049 53.608 53.608 53.608s53.608-24.049 53.608-53.608S285.56 265.437 256 265.437z" opacity="1" data-original="url(#o)" class=""></path><path fill="url(#p)" d="M256 353.648c-19.082 0-34.604-15.523-34.604-34.604 0-19.08 15.522-34.604 34.604-34.604 19.079 0 34.602 15.523 34.602 34.604S275.079 353.648 256 353.648zm0-61.208c-14.67 0-26.604 11.935-26.604 26.604 0 14.67 11.935 26.604 26.604 26.604 14.668 0 26.602-11.935 26.602-26.604S270.668 292.44 256 292.44z" opacity="1" data-original="url(#p)"></path><path fill="url(#q)" d="M352.314 323.044h-79.211a4 4 0 0 1 0-8h79.211a4 4 0 0 1 0 8z" opacity="1" data-original="url(#q)"></path><path fill="url(#r)" d="M238.896 323.044h-79.21a4 4 0 0 1 0-8h79.21a4 4 0 0 1 0 8z" opacity="1" data-original="url(#r)" class=""></path><path fill="url(#s)" d="M256 305.941a4 4 0 0 1-4-4V222.73a4 4 0 0 1 8 0v79.211a4 4 0 0 1-4 4z" opacity="1" data-original="url(#s)"></path><path fill="url(#t)" d="M256 419.358a4 4 0 0 1-4-4v-79.211a4 4 0 0 1 8 0v79.211a4 4 0 0 1-4 4z" opacity="1" data-original="url(#t)"></path><path fill="url(#u)" d="M473.696 499.515h-59.874c-10.258-.003-18.601-8.347-18.6-18.601v-12.675a3.902 3.902 0 0 1-.006-.217c0-8.578-6.677-15.745-15.223-16.372h-45.242c-4.952 0-9.619-1.938-13.141-5.459-3.521-3.521-5.461-8.188-5.461-13.142l-.001-12.296c0-10.254 8.343-18.598 18.598-18.602l40.775-.001.001-131.559c0-10.255 8.344-18.6 18.6-18.601h2.92c4.952 0 9.618 1.94 13.139 5.461s5.461 8.188 5.46 13.14v45.348a18.496 18.496 0 0 1 10.602-3.324h2.916c8.556.001 15.78 5.807 17.942 13.684a18.506 18.506 0 0 1 11.26-3.805h2.92c8.879 0 16.324 6.255 18.164 14.589a18.495 18.495 0 0 1 11.035-3.639l2.922.001c10.253 0 18.597 8.344 18.598 18.6v80.938c0 10.256-8.344 18.599-18.6 18.599h-1.102l-.002 29.331c.001 4.951-1.938 9.618-5.461 13.14-3.519 3.522-8.186 5.462-13.139 5.462zm-70.48-31.731c.005.079.007.158.007.238v12.892c-.001 5.844 4.755 10.599 10.601 10.601h59.873c2.816 0 5.474-1.107 7.484-3.117 2.01-2.011 3.117-4.668 3.116-7.482l.002-33.332a4 4 0 0 1 4-4h5.102c5.845 0 10.6-4.754 10.6-10.599v-80.937c-.001-5.845-4.756-10.601-10.6-10.601l-2.922-.001c-5.835 0-10.591 4.75-10.599 10.588a4.001 4.001 0 0 1-4 3.995h-.003a4 4 0 0 1-3.997-4.001l.001-10.933c0-5.844-4.754-10.6-10.6-10.6h-2.92c-5.845 0-10.6 4.756-10.6 10.601v13.928a4 4 0 0 1-6.83 2.828 4.003 4.003 0 0 1-1.173-2.829l.003-23.806c0-5.844-4.757-10.6-10.604-10.601h-2.915c-5.845 0-10.601 4.756-10.602 10.601a4 4 0 0 1-8-.001v-60.624c0-2.815-1.106-5.473-3.117-7.483s-4.667-3.118-7.481-3.118h-2.92c-5.845 0-10.6 4.756-10.6 10.601l-.001 135.559a4 4 0 0 1-4 4l-44.774.001c-5.844.002-10.599 4.758-10.599 10.601l.001 12.297c0 2.816 1.107 5.474 3.117 7.484 2.011 2.01 4.668 3.116 7.484 3.116h45.381c.088 0 .175.003.263.009 12.719.836 22.699 11.41 22.822 24.125z" opacity="1" data-original="url(#u)"></path><path fill="url(#v)" d="M98.179 499.515H38.304c-4.954 0-9.62-1.939-13.141-5.461-3.522-3.521-5.462-8.188-5.46-13.141l-.002-29.33H18.6c-10.256 0-18.6-8.343-18.6-18.599v-80.937c.002-10.257 8.347-18.601 18.6-18.601l2.918-.001c4.128 0 7.946 1.353 11.036 3.638 1.84-8.334 9.286-14.588 18.165-14.588h2.92c4.229 0 8.132 1.419 11.26 3.805 2.162-7.877 9.387-13.683 17.941-13.684h2.917c3.937 0 7.592 1.229 10.602 3.324v-45.349c-.001-10.255 8.341-18.6 18.599-18.601h2.92c10.256.001 18.6 8.346 18.6 18.601l.001 131.559 40.774.001c10.256.004 18.598 8.348 18.598 18.601v12.297c-.001 10.257-8.345 18.601-18.6 18.601h-45.244c-8.546.627-15.223 7.794-15.223 16.372 0 .073-.002.146-.006.219v12.673c0 10.254-8.342 18.598-18.599 18.601zM21.52 341.446l-2.918.001c-5.845 0-10.6 4.756-10.602 10.602v80.936c0 5.845 4.755 10.599 10.6 10.599h5.102a4 4 0 0 1 4 4l.002 33.331c-.002 2.815 1.106 5.473 3.115 7.483 2.012 2.01 4.669 3.117 7.485 3.117h59.874-.001c5.846-.002 10.602-4.757 10.601-10.6v-12.893c0-.081.002-.16.006-.239.125-12.714 10.104-23.288 22.821-24.124a3.85 3.85 0 0 1 .263-.009h45.381c5.845 0 10.601-4.756 10.602-10.601v-12.297c0-5.843-4.755-10.599-10.598-10.601l-44.774-.001a4 4 0 0 1-4-4l-.001-135.559c0-5.845-4.755-10.601-10.6-10.601h-2.92c-5.845 0-10.6 4.756-10.599 10.601v60.625a4 4 0 0 1-8 .001c-.001-5.845-4.757-10.601-10.602-10.601h-2.916c-5.846.001-10.603 4.757-10.603 10.602l.003 23.805a4 4 0 0 1-8.003.001v-13.928c0-5.845-4.756-10.601-10.6-10.601h-2.92c-5.845 0-10.601 4.756-10.601 10.601l.002 10.927v.005a4.001 4.001 0 0 1-3.997 4.001h-.003a4 4 0 0 1-4-3.995c-.007-5.838-4.763-10.588-10.599-10.588z" opacity="1" data-original="url(#v)"></path></g></svg>