<svg xmlns="http://www.w3.org/2000/svg" version="1.1" xmlns:xlink="http://www.w3.org/1999/xlink" width="512" height="512" x="0" y="0" viewBox="0 0 64 64" style="enable-background:new 0 0 512 512" xml:space="preserve" class=""><g><path fill="#4084c1" d="M23 2h18v18H23z" opacity="1" data-original="#4084c1"></path><path fill="#59a2d8" d="M26 13a4 4 0 0 0 4 4h11V2H26z" opacity="1" data-original="#59a2d8"></path><path fill="#dc4a4a" d="m44 41 9-18 9 18z" opacity="1" data-original="#dc4a4a"></path><path fill="#e56a6a" d="m53 23-5 10v2a4 4 0 0 0 4 4h9z" opacity="1" data-original="#e56a6a"></path><circle cx="11" cy="32" r="9" fill="#52a04f" opacity="1" data-original="#52a04f"></circle><path fill="#6db569" d="M11 23c-1.851 0-3.57.56-5 1.518V33a4 4 0 0 0 4 4h8.482A9 9 0 0 0 11 23z" opacity="1" data-original="#6db569" class=""></path><path fill="#e7b541" d="M41 49v8l-5 5h-8l-5-5v-8l5-5h8z" opacity="1" data-original="#e7b541"></path><path fill="#f9cb6e" d="m28 44-1 1v9a4 4 0 0 0 4 4h9l1-1v-8l-5-5z" opacity="1" data-original="#f9cb6e"></path><g fill="#59a2d8"><path d="M54 20h-2v-8h-8v-2h9a1 1 0 0 1 1 1zM12 20h-2v-9a1 1 0 0 1 1-1h9v2h-8zM53 54h-9v-2h8v-8h2v9a1 1 0 0 1-1 1zM20 54h-9a1 1 0 0 1-1-1v-9h2v8h8z" fill="#59a2d8" opacity="1" data-original="#59a2d8"></path></g><path fill="#6db569" d="m25 37 6 4v-2h8v-4h-8v-2z" opacity="1" data-original="#6db569" class=""></path><path fill="#8cc687" d="M39 35h-8v-2l-6 4h14z" opacity="1" data-original="#8cc687"></path><path fill="#6db569" d="m39 27-6 4v-2h-8v-4h8v-2z" opacity="1" data-original="#6db569" class=""></path><path fill="#8cc687" d="M25 25h8v-2l6 4H25z" opacity="1" data-original="#8cc687"></path><path d="M41 1H23a1 1 0 0 0-1 1v18a1 1 0 0 0 1 1h18a1 1 0 0 0 1-1V2a1 1 0 0 0-1-1zm-1 18H24V3h16zM43.149 41.526c.183.294.504.474.851.474h18a1 1 0 0 0 .895-1.447l-9-18c-.339-.678-1.45-.678-1.789 0l-9 18a1 1 0 0 0 .043.973zM53 25.236 60.382 40H45.618zM1 32c0 5.514 4.486 10 10 10s10-4.486 10-10-4.486-10-10-10S1 26.486 1 32zm10-8c4.411 0 8 3.589 8 8s-3.589 8-8 8-8-3.589-8-8 3.589-8 8-8zM22 57c0 .265.105.52.293.707l5 5A.997.997 0 0 0 28 63h8c.265 0 .52-.105.707-.293l5-5A.997.997 0 0 0 42 57v-8a.997.997 0 0 0-.293-.707l-5-5A.997.997 0 0 0 36 43h-8a.997.997 0 0 0-.707.293l-5 5A.997.997 0 0 0 22 49zm2-7.586L28.414 45h7.172L40 49.414v7.172L35.586 61h-7.172L24 56.586zM54 20v-9a1 1 0 0 0-1-1h-9v2h8v8zM12 12h8v-2h-9a1 1 0 0 0-1 1v9h2zM44 52v2h9a1 1 0 0 0 1-1v-9h-2v8zM10 44v9a1 1 0 0 0 1 1h9v-2h-8v-8zM31.472 32.118a.998.998 0 0 0-1.026.05l-6 4a1 1 0 0 0-.001 1.664l6 4A.998.998 0 0 0 32 41v-1h7a1 1 0 0 0 1-1v-4a1 1 0 0 0-1-1h-7v-1a1 1 0 0 0-.528-.882zM38 36v2h-7a1 1 0 0 0-1 1v.131L26.803 37 30 34.869V35a1 1 0 0 0 1 1zM39.555 26.168l-6-4A1 1 0 0 0 32 23v1h-7a1 1 0 0 0-1 1v4a1 1 0 0 0 1 1h7v1a1 1 0 0 0 1.555.832l6-4a1.001 1.001 0 0 0 0-1.664zM34 29.131V29a1 1 0 0 0-1-1h-7v-2h7a1 1 0 0 0 1-1v-.131L37.197 27z" fill="#000000" opacity="1" data-original="#000000" class=""></path></g></svg>